<svg width="540" height="540" viewBox="0 0 540 540" fill="none" xmlns="http://www.w3.org/2000/svg">
<rect width="540" height="540" rx="64" fill="white"/>
<rect x="49.3125" y="112" width="109.375" height="150" rx="24" fill="#7B3F00"/>
<rect x="174.688" y="112" width="150" height="150" rx="24" fill="#7B3F00"/>
<path fill-rule="evenodd" clip-rule="evenodd" d="M490.688 215.507C482.336 218.3 473.405 219.812 464.125 219.812C417.526 219.812 379.75 181.687 379.75 134.656C379.75 126.811 380.801 119.214 382.769 112H364.688C351.433 112 340.688 122.745 340.688 136V238C340.688 251.255 351.433 262 364.688 262H466.688C479.942 262 490.688 251.255 490.688 238V215.507Z" fill="#7B3F00"/>
<rect x="49.3125" y="278" width="64.0625" height="150" rx="24" fill="#7B3F00"/>
<rect x="129.375" y="278" width="265.625" height="150" rx="24" fill="#7B3F00"/>
<rect x="411" y="278" width="79.6875" height="150" rx="24" fill="#7B3F00"/>
</svg>
